<svg width="200" height="200" viewBox="0 0 200 200" fill="none" xmlns="http://www.w3.org/2000/svg">
<path d="M21.3904 10.6952C21.3904 15.352 18.4143 19.3136 14.2603 20.7819V71.3015L29.6668 110.422L14.2603 149.733C6.41713 149.733 0 143.322 0 135.486V85.549C0 80.3033 2.87587 75.6958 7.13015 73.2231V20.7819C2.97612 19.3136 0 15.352 0 10.6952C0 4.78839 4.78839 0 10.6952 0C16.6021 0 21.3904 4.78839 21.3904 10.6952Z" fill="#F8312F"/>
<path d="M200 11.0517C200 15.9079 196.868 20.0325 192.514 21.5157V72.7261C196.769 75.201 199.644 79.8128 199.644 85.0634V135.046C199.644 142.889 193.227 149.306 185.384 149.306L164.418 108.813L185.384 70.8031V21.5159C181.029 20.0329 177.897 15.9081 177.897 11.0517C177.897 4.94804 182.845 0 188.949 0C195.052 0 200 4.94804 200 11.0517Z" fill="#F8312F"/>
<path d="M64.1714 17.8254C64.1714 11.9185 68.96 7.13014 74.8666 7.13014H124.778C130.684 7.13014 135.473 11.9185 135.473 17.8254C135.473 22.669 132.253 26.7607 127.837 28.0767C125.866 28.664 123.776 28.8173 121.804 29.4015L100.035 35.8498L77.7957 29.3736C75.8527 28.8078 73.7978 28.6597 71.8555 28.0909C67.4149 26.7905 64.1714 22.6867 64.1714 17.8254Z" fill="#FFB02E"/>
<path d="M142.96 199.644H56.6847C33.2265 199.644 14.2603 180.678 14.2603 157.22V71.5154C14.2603 47.772 33.5117 28.5206 57.2551 28.5206H142.46C166.132 28.5206 185.384 47.772 185.384 71.5154V157.291C185.384 180.678 166.418 199.644 142.96 199.644Z" fill="#CDC4D6"/>
<path d="M51.675 117.647H147.969C164.58 117.647 178.254 103.965 178.254 87.3443C178.254 70.6527 164.651 57.0412 147.969 57.0412H51.675C34.9934 57.0412 21.3905 70.6527 21.3905 87.3443C21.3905 104.036 34.9934 117.647 51.675 117.647Z" fill="#212121"/>
<path d="M81.7956 171.124H117.848C123.631 171.124 128.343 166.321 128.343 160.428C128.343 154.535 123.631 149.733 117.848 149.733H81.7956C76.0131 149.733 71.3015 154.535 71.3015 160.428C71.3015 166.321 76.0131 171.124 81.7956 171.124Z" fill="#212121"/>
<path d="M58.8238 71.3015C53.9014 71.3015 49.9111 75.2915 49.9111 80.2142V98.0396C49.9111 102.962 53.9014 106.952 58.8238 106.952C63.7465 106.952 67.7365 102.962 67.7365 98.0396V80.2142C67.7365 75.2915 63.7465 71.3015 58.8238 71.3015Z" fill="#00A6ED"/>
<path d="M140.821 71.3015C135.898 71.3015 131.908 75.2915 131.908 80.2142V98.0396C131.908 102.962 135.898 106.952 140.821 106.952C145.743 106.952 149.733 102.962 149.733 98.0396V80.2142C149.733 75.2915 145.743 71.3015 140.821 71.3015Z" fill="#00A6ED"/>
</svg>
