<svg width="300" height="300" viewBox="0 0 300 300" fill="none" xmlns="http://www.w3.org/2000/svg">
<g filter="url(#filter0_d_29_2)">
<path d="M18.644 208.816V198.064H37.076V205.744H41.684V193.456H26.324V175.024H37.076V182.704H41.684V175.024H49.364V159.664H64.724V151.984H72.404V128.944H80.084V121.264H87.764V93.616H80.084V85.936H72.404V75.184H87.764V59.824H98.516V67.504H110.804V59.824H127.7V62.896H113.876V70.576H95.444V62.896H90.836V78.256H75.476V82.864H83.156V90.544H90.836V124.336H83.156V132.016H75.476V155.056H67.796V162.736H52.436V178.096H44.756V185.776H34.004V178.096H29.396V190.384H44.756V208.816H34.004V201.136H21.716V205.744H27.86V208.816H18.644ZM72.404 70.576V59.824H81.62V62.896H75.476V67.504H81.62V70.576H72.404ZM141.524 76.72V70.576H133.844V61.36H136.916V67.504H144.596V76.72H141.524ZM87.764 147.376V136.624H95.444V113.584H103.124V108.976H95.444V98.224H110.804V75.184H118.484V67.504H127.7V70.576H121.556V78.256H113.876V101.296H98.516V105.904H106.196V116.656H98.516V139.696H90.836V144.304H96.98V147.376H87.764ZM34.004 162.736V153.52H37.076V159.664H41.684V151.984H49.364V139.696H41.684V128.944H64.724V113.584H80.084V108.976H64.724V69.04H67.796V105.904H83.156V116.656H67.796V132.016H44.756V136.624H52.436V155.056H44.756V162.736H34.004ZM118.484 93.616V82.864H126.164V75.184H135.38V78.256H129.236V85.936H121.556V90.544H133.844V82.864H150.74V85.936H136.916V93.616H118.484ZM95.444 93.616V76.72H98.516V90.544H103.124V76.72H106.196V93.616H95.444ZM156.884 168.88V162.736H149.204V144.304H164.564V132.016H156.884V124.336H152.276V139.696H144.596V155.056H133.844V139.696H126.164V105.904H141.524V90.544H152.276V105.904H159.956V116.656H144.596V124.336H136.916V128.944H143.06V132.016H133.844V121.264H141.524V113.584H156.884V108.976H149.204V93.616H144.596V108.976H129.236V136.624H136.916V151.984H141.524V136.624H149.204V121.264H159.956V128.944H167.636V147.376H152.276V159.664H159.956V168.88H156.884ZM72.404 101.296V92.08H75.476V98.224H81.62V101.296H72.404ZM49.364 124.336V113.584H57.044V92.08H60.116V116.656H52.436V121.264H58.58V124.336H49.364ZM120.02 101.296V98.224H135.38V101.296H120.02ZM110.804 116.656V105.904H120.02V108.976H113.876V113.584H120.02V116.656H110.804ZM118.484 162.736V153.52H121.556V159.664H126.164V147.376H118.484V124.336H112.34V121.264H121.556V144.304H129.236V162.736H118.484ZM110.804 145.84V130.48H113.876V145.84H110.804ZM57.044 147.376V136.624H66.26V139.696H60.116V144.304H66.26V147.376H57.044ZM80.084 155.056V138.16H83.156V151.984H96.98V155.056H80.084ZM164.564 170.416V159.664H172.244V155.056H158.42V151.984H175.316V162.736H167.636V167.344H173.78V170.416H164.564ZM57.044 176.56V167.344H72.404V159.664H81.62V162.736H75.476V170.416H60.116V176.56H57.044ZM141.524 168.88V162.736H135.38V159.664H144.596V168.88H141.524ZM87.764 176.56V161.2H90.836V176.56H87.764ZM35.54 170.416V167.344H43.22V170.416H35.54ZM103.124 216.496V190.384H110.804V170.416H106.196V184.24H103.124V167.344H113.876V193.456H106.196V213.424H118.484V208.816H110.804V198.064H118.484V182.704H126.164V178.096H118.484V167.344H136.916V175.024H144.596V198.064H152.276V205.744H156.884V185.776H152.276V191.92H149.204V182.704H159.956V208.816H149.204V201.136H141.524V178.096H133.844V170.416H121.556V175.024H129.236V185.776H121.556V201.136H113.876V205.744H121.556V216.496H103.124ZM164.564 193.456V184.24H167.636V190.384H172.244V178.096H149.204V168.88H152.276V175.024H175.316V193.456H164.564ZM10.964 239.536V221.104H18.644V213.424H49.364V205.744H60.116V228.784H72.404V198.064H80.084V193.456H49.364V182.704H64.724V175.024H83.156V182.704H95.444V176.56H98.516V185.776H80.084V178.096H67.796V185.776H52.436V190.384H83.156V201.136H75.476V231.856H57.044V208.816H52.436V216.496H21.716V224.176H14.036V236.464H18.644V228.784H26.324V221.104H37.076V228.784H52.436V239.536H27.86V236.464H49.364V231.856H34.004V224.176H29.396V231.856H21.716V239.536H10.964ZM179.924 207.28V176.56H182.996V207.28H179.924ZM126.164 201.136V190.384H133.844V184.24H136.916V193.456H129.236V198.064H135.38V201.136H126.164ZM87.764 216.496V207.28H90.836V213.424H95.444V193.456H90.836V199.6H87.764V190.384H98.516V216.496H87.764ZM50.9 201.136V198.064H58.58V201.136H50.9ZM158.42 239.536V236.464H164.564V199.6H167.636V239.536H158.42ZM172.244 207.28V199.6H175.316V207.28H172.244ZM187.604 207.28V199.6H190.676V207.28H187.604ZM64.724 222.64V199.6H67.796V222.64H64.724ZM135.38 208.816V205.744H143.06V208.816H135.38ZM80.084 214.96V207.28H83.156V214.96H80.084ZM133.844 222.64V216.496H126.164V207.28H129.236V213.424H136.916V222.64H133.844ZM143.06 216.496V213.424H150.74V216.496H143.06ZM187.604 239.536V231.856H173.78V228.784H190.676V236.464H195.284V216.496H175.316V221.104H189.14V224.176H172.244V213.424H198.356V239.536H187.604ZM43.22 224.176V221.104H50.9V224.176H43.22ZM141.524 239.536V221.104H159.956V230.32H156.884V224.176H144.596V236.464H149.204V230.32H152.276V239.536H141.524ZM58.58 239.536V236.464H66.26V239.536H58.58ZM173.78 239.536V236.464H181.46V239.536H173.78ZM264.374 191.92V185.776H256.694V175.024H264.374V159.664H272.054V151.984H279.734V147.376H272.054V136.624H279.734V116.656H272.054V90.544H279.734V85.936H272.054V75.184H279.734V70.576H272.054V62.896H244.406V75.184H267.446V116.656H256.694V108.976H252.086V116.656H244.406V132.016H233.654V116.656H229.046V144.304H233.654V136.624H249.014V121.264H275.126V132.016H259.766V147.376H244.406V155.056H218.294V105.904H233.654V62.896H229.046V70.576H221.366V75.184H229.046V93.616H221.366V98.224H227.51V101.296H218.294V90.544H225.974V78.256H218.294V67.504H225.974V59.824H236.726V108.976H221.366V151.984H241.334V144.304H256.694V128.944H272.054V124.336H252.086V139.696H236.726V147.376H225.974V113.584H236.726V128.944H241.334V113.584H249.014V105.904H259.766V113.584H264.374V78.256H241.334V59.824H275.126V67.504H282.806V78.256H275.126V82.864H282.806V93.616H275.126V113.584H282.806V139.696H275.126V144.304H282.806V155.056H275.126V162.736H267.446V178.096H259.766V182.704H267.446V191.92H264.374ZM250.55 70.576V67.504H265.91V70.576H250.55ZM241.334 107.44V90.544H249.014V82.864H259.766V101.296H250.55V98.224H256.694V85.936H252.086V93.616H244.406V107.44H241.334ZM279.734 107.44V99.76H282.806V107.44H279.734ZM249.014 162.736V153.52H252.086V159.664H256.694V151.984H264.374V145.84H267.446V155.056H259.766V162.736H249.014ZM225.974 216.496V201.136H218.294V191.92H221.366V198.064H229.046V213.424H233.654V205.744H244.406V213.424H256.694V208.816H249.014V193.456H244.406V201.136H233.654V193.456H225.974V185.776H218.294V159.664H229.046V175.024H249.014V170.416H241.334V162.736H235.19V159.664H244.406V167.344H252.086V178.096H225.974V162.736H221.366V182.704H229.046V190.384H236.726V198.064H241.334V190.384H252.086V205.744H259.766V216.496H241.334V208.816H236.726V216.496H225.974ZM272.054 185.776V167.344H281.27V170.416H275.126V182.704H279.734V176.56H282.806V185.776H272.054ZM235.19 185.776V182.704H250.55V185.776H235.19ZM264.374 224.176V201.136H256.694V191.92H259.766V198.064H267.446V221.104H279.734V216.496H272.054V205.744H279.734V193.456H273.59V190.384H282.806V208.816H275.126V213.424H282.806V224.176H264.374ZM218.294 239.536V207.28H221.366V236.464H227.51V239.536H218.294ZM249.014 239.536V231.856H244.406V238H241.334V228.784H252.086V236.464H279.734V231.856H256.694V224.176H229.046V228.784H236.726V238H233.654V231.856H225.974V221.104H259.766V228.784H282.806V239.536H249.014Z" fill="#DC2626"/>
</g>
<defs>
<filter id="filter0_d_29_2" x="10.964" y="59.824" width="277.842" height="185.712" filterUnits="userSpaceOnUse" color-interpolation-filters="sRGB">
<feFlood flood-opacity="0" result="BackgroundImageFix"/>
<feColorMatrix in="SourceAlpha" type="matrix" values="0 0 0 0 0 0 0 0 0 0 0 0 0 0 0 0 0 0 127 0" result="hardAlpha"/>
<feOffset dx="6" dy="6"/>
<feComposite in2="hardAlpha" operator="out"/>
<feColorMatrix type="matrix" values="0 0 0 0 0 0 0 0 0 0 0 0 0 0 0 0 0 0 0.25 0"/>
<feBlend mode="normal" in2="BackgroundImageFix" result="effect1_dropShadow_29_2"/>
<feBlend mode="normal" in="SourceGraphic" in2="effect1_dropShadow_29_2" result="shape"/>
</filter>
</defs>
</svg>
