<svg width="1121" height="300" viewBox="0 0 1121 300" fill="none" xmlns="http://www.w3.org/2000/svg">
<g filter="url(#filter0_d_6_3)">
<path d="M27.269 208.816V198.064H45.701V205.744H50.309V193.456H34.949V175.024H45.701V182.704H50.309V175.024H57.989V159.664H73.349V151.984H81.029V128.944H88.709V121.264H96.389V93.616H88.709V85.936H81.029V75.184H96.389V59.824H107.141V67.504H119.429V59.824H136.325V62.896H122.501V70.576H104.069V62.896H99.461V78.256H84.101V82.864H91.781V90.544H99.461V124.336H91.781V132.016H84.101V155.056H76.421V162.736H61.061V178.096H53.381V185.776H42.629V178.096H38.021V190.384H53.381V208.816H42.629V201.136H30.341V205.744H36.485V208.816H27.269ZM81.029 70.576V59.824H90.245V62.896H84.101V67.504H90.245V70.576H81.029ZM150.149 76.72V70.576H142.469V61.36H145.541V67.504H153.221V76.72H150.149ZM96.389 147.376V136.624H104.069V113.584H111.749V108.976H104.069V98.224H119.429V75.184H127.109V67.504H136.325V70.576H130.181V78.256H122.501V101.296H107.141V105.904H114.821V116.656H107.141V139.696H99.461V144.304H105.605V147.376H96.389ZM42.629 162.736V153.52H45.701V159.664H50.309V151.984H57.989V139.696H50.309V128.944H73.349V113.584H88.709V108.976H73.349V69.04H76.421V105.904H91.781V116.656H76.421V132.016H53.381V136.624H61.061V155.056H53.381V162.736H42.629ZM127.109 93.616V82.864H134.789V75.184H144.005V78.256H137.861V85.936H130.181V90.544H142.469V82.864H159.365V85.936H145.541V93.616H127.109ZM104.069 93.616V76.72H107.141V90.544H111.749V76.72H114.821V93.616H104.069ZM165.509 168.88V162.736H157.829V144.304H173.189V132.016H165.509V124.336H160.901V139.696H153.221V155.056H142.469V139.696H134.789V105.904H150.149V90.544H160.901V105.904H168.581V116.656H153.221V124.336H145.541V128.944H151.685V132.016H142.469V121.264H150.149V113.584H165.509V108.976H157.829V93.616H153.221V108.976H137.861V136.624H145.541V151.984H150.149V136.624H157.829V121.264H168.581V128.944H176.261V147.376H160.901V159.664H168.581V168.88H165.509ZM81.029 101.296V92.08H84.101V98.224H90.245V101.296H81.029ZM57.989 124.336V113.584H65.669V92.08H68.741V116.656H61.061V121.264H67.205V124.336H57.989ZM128.645 101.296V98.224H144.005V101.296H128.645ZM119.429 116.656V105.904H128.645V108.976H122.501V113.584H128.645V116.656H119.429ZM127.109 162.736V153.52H130.181V159.664H134.789V147.376H127.109V124.336H120.965V121.264H130.181V144.304H137.861V162.736H127.109ZM119.429 145.84V130.48H122.501V145.84H119.429ZM65.669 147.376V136.624H74.885V139.696H68.741V144.304H74.885V147.376H65.669ZM88.709 155.056V138.16H91.781V151.984H105.605V155.056H88.709ZM173.189 170.416V159.664H180.869V155.056H167.045V151.984H183.941V162.736H176.261V167.344H182.405V170.416H173.189ZM65.669 176.56V167.344H81.029V159.664H90.245V162.736H84.101V170.416H68.741V176.56H65.669ZM150.149 168.88V162.736H144.005V159.664H153.221V168.88H150.149ZM96.389 176.56V161.2H99.461V176.56H96.389ZM44.165 170.416V167.344H51.845V170.416H44.165ZM111.749 216.496V190.384H119.429V170.416H114.821V184.24H111.749V167.344H122.501V193.456H114.821V213.424H127.109V208.816H119.429V198.064H127.109V182.704H134.789V178.096H127.109V167.344H145.541V175.024H153.221V198.064H160.901V205.744H165.509V185.776H160.901V191.92H157.829V182.704H168.581V208.816H157.829V201.136H150.149V178.096H142.469V170.416H130.181V175.024H137.861V185.776H130.181V201.136H122.501V205.744H130.181V216.496H111.749ZM173.189 193.456V184.24H176.261V190.384H180.869V178.096H157.829V168.88H160.901V175.024H183.941V193.456H173.189ZM19.589 239.536V221.104H27.269V213.424H57.989V205.744H68.741V228.784H81.029V198.064H88.709V193.456H57.989V182.704H73.349V175.024H91.781V182.704H104.069V176.56H107.141V185.776H88.709V178.096H76.421V185.776H61.061V190.384H91.781V201.136H84.101V231.856H65.669V208.816H61.061V216.496H30.341V224.176H22.661V236.464H27.269V228.784H34.949V221.104H45.701V228.784H61.061V239.536H36.485V236.464H57.989V231.856H42.629V224.176H38.021V231.856H30.341V239.536H19.589ZM188.549 207.28V176.56H191.621V207.28H188.549ZM134.789 201.136V190.384H142.469V184.24H145.541V193.456H137.861V198.064H144.005V201.136H134.789ZM96.389 216.496V207.28H99.461V213.424H104.069V193.456H99.461V199.6H96.389V190.384H107.141V216.496H96.389ZM59.525 201.136V198.064H67.205V201.136H59.525ZM167.045 239.536V236.464H173.189V199.6H176.261V239.536H167.045ZM180.869 207.28V199.6H183.941V207.28H180.869ZM196.229 207.28V199.6H199.301V207.28H196.229ZM73.349 222.64V199.6H76.421V222.64H73.349ZM144.005 208.816V205.744H151.685V208.816H144.005ZM88.709 214.96V207.28H91.781V214.96H88.709ZM142.469 222.64V216.496H134.789V207.28H137.861V213.424H145.541V222.64H142.469ZM151.685 216.496V213.424H159.365V216.496H151.685ZM196.229 239.536V231.856H182.405V228.784H199.301V236.464H203.909V216.496H183.941V221.104H197.765V224.176H180.869V213.424H206.981V239.536H196.229ZM51.845 224.176V221.104H59.525V224.176H51.845ZM150.149 239.536V221.104H168.581V230.32H165.509V224.176H153.221V236.464H157.829V230.32H160.901V239.536H150.149ZM67.205 239.536V236.464H74.885V239.536H67.205ZM182.405 239.536V236.464H190.085V239.536H182.405ZM272.999 191.92V185.776H265.319V175.024H272.999V159.664H280.679V151.984H288.359V147.376H280.679V136.624H288.359V116.656H280.679V90.544H288.359V85.936H280.679V75.184H288.359V70.576H280.679V62.896H253.031V75.184H276.071V116.656H265.319V108.976H260.711V116.656H253.031V132.016H242.279V116.656H237.671V144.304H242.279V136.624H257.639V121.264H283.751V132.016H268.391V147.376H253.031V155.056H226.919V105.904H242.279V62.896H237.671V70.576H229.991V75.184H237.671V93.616H229.991V98.224H236.135V101.296H226.919V90.544H234.599V78.256H226.919V67.504H234.599V59.824H245.351V108.976H229.991V151.984H249.959V144.304H265.319V128.944H280.679V124.336H260.711V139.696H245.351V147.376H234.599V113.584H245.351V128.944H249.959V113.584H257.639V105.904H268.391V113.584H272.999V78.256H249.959V59.824H283.751V67.504H291.431V78.256H283.751V82.864H291.431V93.616H283.751V113.584H291.431V139.696H283.751V144.304H291.431V155.056H283.751V162.736H276.071V178.096H268.391V182.704H276.071V191.92H272.999ZM259.175 70.576V67.504H274.535V70.576H259.175ZM249.959 107.44V90.544H257.639V82.864H268.391V101.296H259.175V98.224H265.319V85.936H260.711V93.616H253.031V107.44H249.959ZM288.359 107.44V99.76H291.431V107.44H288.359ZM257.639 162.736V153.52H260.711V159.664H265.319V151.984H272.999V145.84H276.071V155.056H268.391V162.736H257.639ZM234.599 216.496V201.136H226.919V191.92H229.991V198.064H237.671V213.424H242.279V205.744H253.031V213.424H265.319V208.816H257.639V193.456H253.031V201.136H242.279V193.456H234.599V185.776H226.919V159.664H237.671V175.024H257.639V170.416H249.959V162.736H243.815V159.664H253.031V167.344H260.711V178.096H234.599V162.736H229.991V182.704H237.671V190.384H245.351V198.064H249.959V190.384H260.711V205.744H268.391V216.496H249.959V208.816H245.351V216.496H234.599ZM280.679 185.776V167.344H289.895V170.416H283.751V182.704H288.359V176.56H291.431V185.776H280.679ZM243.815 185.776V182.704H259.175V185.776H243.815ZM272.999 224.176V201.136H265.319V191.92H268.391V198.064H276.071V221.104H288.359V216.496H280.679V205.744H288.359V193.456H282.215V190.384H291.431V208.816H283.751V213.424H291.431V224.176H272.999ZM226.919 239.536V207.28H229.991V236.464H236.135V239.536H226.919ZM257.639 239.536V231.856H253.031V238H249.959V228.784H260.711V236.464H288.359V231.856H265.319V224.176H237.671V228.784H245.351V238H242.279V231.856H234.599V221.104H268.391V228.784H291.431V239.536H257.639Z" fill="#DC2626"/>
<path d="M352.913 117.68V108.464H363.665V117.68H360.593V111.536H355.985V117.68H352.913ZM398.993 157.616V126.896H394.385V134.576H386.705V142.256H375.953V123.824H383.633V116.144H391.313V111.536H371.345V116.144H377.489V119.216H368.273V108.464H394.385V119.216H386.705V126.896H379.025V139.184H383.633V131.504H391.313V123.824H402.065V154.544H406.673V148.4H409.745V157.616H398.993ZM406.673 134.576V119.216H398.993V108.464H417.425V116.144H422.033V110H425.105V119.216H414.353V111.536H402.065V116.144H409.745V131.504H414.353V123.824H425.105V131.504H429.713V123.824H437.393V119.216H431.249V116.144H440.465V126.896H432.785V134.576H422.033V126.896H417.425V134.576H406.673ZM337.553 133.04V117.68H340.625V133.04H337.553ZM345.233 133.04V123.824H355.985V133.04H352.913V126.896H348.305V133.04H345.233ZM362.129 142.256V139.184H368.273V134.576H360.593V123.824H369.809V126.896H363.665V131.504H371.345V142.256H362.129ZM438.929 134.576V131.504H445.073V125.36H448.145V134.576H438.929ZM360.593 157.616V149.936H352.913V142.256H332.945V149.936H322.193V131.504H329.873V125.36H332.945V134.576H325.265V146.864H329.873V139.184H355.985V146.864H363.665V154.544H368.273V146.864H391.313V140.72H394.385V149.936H371.345V157.616H360.593ZM422.033 157.616V149.936H414.353V139.184H440.465V149.936H431.249V146.864H437.393V142.256H417.425V146.864H425.105V154.544H431.249V157.616H422.033ZM329.873 165.296V157.616H314.513V140.72H317.585V154.544H332.945V162.224H352.913V157.616H346.769V154.544H355.985V165.296H329.873ZM452.753 148.4V140.72H455.825V148.4H452.753ZM337.553 156.08V146.864H346.769V149.936H340.625V156.08H337.553ZM445.073 157.616V148.4H448.145V154.544H461.969V157.616H445.073ZM414.353 165.296V156.08H417.425V162.224H437.393V156.08H440.465V165.296H414.353ZM352.913 219.056V177.584H368.273V165.296H363.665V172.976H348.305V180.656H329.873V172.976H317.585V192.944H329.873V188.336H323.729V185.264H332.945V196.016H314.513V169.904H332.945V177.584H345.233V169.904H360.593V162.224H371.345V180.656H355.985V215.984H362.129V219.056H352.913ZM437.393 188.336V169.904H445.073V162.224H461.969V165.296H448.145V172.976H440.465V185.264H460.433V180.656H446.609V177.584H463.505V188.336H437.393ZM400.529 165.296V162.224H408.209V165.296H400.529ZM316.049 165.296V162.224H323.729V165.296H316.049ZM422.033 234.416V223.664H445.073V211.376H429.713V203.696H422.033V196.016H406.673V177.584H417.425V185.264H422.033V172.976H402.065V200.624H409.745V208.304H414.353V202.16H417.425V211.376H406.673V203.696H398.993V169.904H425.105V188.336H414.353V180.656H409.745V192.944H425.105V200.624H432.785V208.304H448.145V226.736H425.105V231.344H431.249V234.416H422.033ZM454.289 172.976V169.904H461.969V172.976H454.289ZM429.713 179.12V171.44H432.785V179.12H429.713ZM329.873 225.2V219.056H322.193V211.376H314.513V200.624H337.553V185.264H348.305V211.376H340.625V215.984H346.769V219.056H337.553V208.304H345.233V188.336H340.625V203.696H317.585V208.304H325.265V215.984H332.945V225.2H329.873ZM362.129 188.336V185.264H369.809V188.336H362.129ZM429.713 194.48V186.8H432.785V194.48H429.713ZM369.809 203.696V200.624H375.953V196.016H362.129V192.944H379.025V203.696H369.809ZM437.393 202.16V192.944H448.145V202.16H445.073V196.016H440.465V202.16H437.393ZM452.753 209.84V192.944H461.969V196.016H455.825V209.84H452.753ZM406.673 225.2V219.056H398.993V211.376H383.633V200.624H392.849V203.696H386.705V208.304H402.065V215.984H409.745V225.2H406.673ZM375.953 242.096V234.416H337.553V223.664H368.273V211.376H360.593V202.16H363.665V208.304H371.345V226.736H340.625V231.344H379.025V239.024H423.569V242.096H375.953ZM422.033 219.056V209.84H425.105V215.984H438.929V219.056H422.033ZM391.313 234.416V219.056H379.025V223.664H385.169V226.736H375.953V215.984H394.385V231.344H398.993V225.2H402.065V234.416H391.313ZM414.353 225.2V217.52H417.425V225.2H414.353ZM408.209 234.416V231.344H415.889V234.416H408.209ZM362.129 242.096V239.024H369.809V242.096H362.129ZM482.859 185.776V175.024H490.539V162.736H482.859V151.984H490.539V144.304H498.219V121.264H513.579V108.976H508.971V116.656H490.539V105.904H499.755V108.976H493.611V113.584H505.899V105.904H516.651V124.336H501.291V147.376H493.611V155.056H485.931V159.664H493.611V178.096H485.931V182.704H492.075V185.776H482.859ZM613.419 239.536V230.32H616.491V236.464H628.779V231.856H621.099V221.104H628.779V216.496H616.491V224.176H608.811V231.856H598.059V216.496H593.451V224.176H582.699V208.816H578.091V216.496H567.339V198.064H582.699V193.456H567.339V151.984H575.019V139.696H559.659V128.944H567.339V124.336H559.659V116.656H555.051V139.696H528.939V108.976H524.331V139.696H508.971V144.304H516.651V151.984H524.331V159.664H528.939V144.304H539.691V151.984H544.299V145.84H547.371V155.056H536.619V147.376H532.011V162.736H521.259V155.056H513.579V147.376H505.899V136.624H521.259V105.904H532.011V136.624H551.979V113.584H562.731V121.264H570.411V132.016H562.731V136.624H578.091V155.056H570.411V190.384H585.771V201.136H570.411V213.424H575.019V205.744H585.771V221.104H590.379V213.424H601.131V228.784H605.739V221.104H613.419V213.424H631.851V224.176H624.171V228.784H631.851V239.536H613.419ZM575.019 185.776V176.56H578.091V182.704H582.699V170.416H575.019V159.664H613.419V136.624H621.099V132.016H598.059V108.976H570.411V113.584H593.451V124.336H576.555V121.264H590.379V116.656H567.339V105.904H601.131V128.944H624.171V139.696H616.491V162.736H578.091V167.344H585.771V185.776H575.019ZM605.739 124.336V115.12H608.811V121.264H614.955V124.336H605.739ZM536.619 132.016V115.12H539.691V128.944H544.299V122.8H547.371V132.016H536.619ZM482.859 132.016V115.12H485.931V128.944H490.539V122.8H493.611V132.016H482.859ZM584.235 155.056V151.984H605.739V147.376H582.699V132.016H576.555V128.944H585.771V144.304H608.811V155.056H584.235ZM507.435 132.016V128.944H515.115V132.016H507.435ZM590.379 139.696V130.48H593.451V136.624H607.275V139.696H590.379ZM482.859 145.84V136.624H492.075V139.696H485.931V145.84H482.859ZM628.779 184.24V170.416H621.099V151.984H628.779V147.376H622.635V144.304H631.851V155.056H624.171V167.344H631.851V184.24H628.779ZM553.515 155.056V151.984H559.659V147.376H553.515V144.304H562.731V155.056H553.515ZM484.395 208.816V205.744H505.899V190.384H513.579V178.096H498.219V151.984H508.971V159.664H516.651V170.416H507.435V167.344H513.579V162.736H505.899V155.056H501.291V175.024H516.651V193.456H508.971V208.816H484.395ZM622.635 208.816V205.744H628.779V193.456H621.099V178.096H613.419V170.416H601.131V178.096H590.379V168.88H593.451V175.024H598.059V167.344H616.491V175.024H624.171V190.384H631.851V208.816H622.635ZM522.795 185.776V182.704H528.939V167.344H539.691V184.24H536.619V170.416H532.011V185.776H522.795ZM521.259 176.56V168.88H524.331V176.56H521.259ZM498.219 199.6V182.704H507.435V185.776H501.291V199.6H498.219ZM605.739 214.96V205.744H613.419V201.136H590.379V182.704H608.811V190.384H613.419V184.24H616.491V193.456H605.739V185.776H593.451V198.064H616.491V208.816H608.811V214.96H605.739ZM482.859 201.136V190.384H492.075V193.456H485.931V198.064H492.075V201.136H482.859ZM528.939 239.536V228.784H536.619V193.456H530.475V190.384H539.691V231.856H532.011V236.464H538.155V239.536H528.939ZM505.899 239.536V231.856H501.291V238H498.219V228.784H508.971V236.464H513.579V213.424H524.331V221.104H528.939V201.136H516.651V205.744H522.795V208.816H513.579V198.064H532.011V224.176H521.259V216.496H516.651V239.536H505.899ZM591.915 208.816V205.744H599.595V208.816H591.915ZM482.859 239.536V228.784H490.539V224.176H482.859V213.424H501.291V221.104H505.899V214.96H508.971V224.176H498.219V216.496H485.931V221.104H493.611V231.856H485.931V236.464H492.075V239.536H482.859ZM567.339 239.536V221.104H578.091V230.32H575.019V224.176H570.411V236.464H582.699V228.784H593.451V236.464H607.275V239.536H590.379V231.856H585.771V239.536H567.339ZM521.259 238V230.32H524.331V238H521.259ZM678.911 149.936V139.184H688.127V142.256H681.983V146.864H694.271V134.576H686.591V123.824H717.311V116.144H728.063V131.504H732.671V111.536H705.023V119.216H686.591V108.464H695.807V111.536H689.663V116.144H701.951V108.464H735.743V134.576H724.991V119.216H720.383V126.896H689.663V131.504H697.343V149.936H678.911ZM740.351 117.68V108.464H757.247V111.536H743.423V117.68H740.351ZM655.871 148.4V139.184H663.551V123.824H678.911V119.216H672.767V116.144H681.983V126.896H666.623V142.256H658.943V148.4H655.871ZM740.351 140.72V123.824H748.031V116.144H758.783V123.824H763.391V116.144H772.607V119.216H766.463V126.896H755.711V119.216H751.103V126.896H743.423V140.72H740.351ZM772.607 126.896V123.824H780.287V126.896H772.607ZM671.231 148.4V131.504H680.447V134.576H674.303V148.4H671.231ZM709.631 140.72V131.504H718.847V134.576H712.703V140.72H709.631ZM763.391 165.296V149.936H758.783V157.616H734.207V154.544H755.711V146.864H766.463V162.224H771.071V139.184H778.751V134.576H751.103V139.184H764.927V142.256H748.031V131.504H781.823V142.256H774.143V165.296H763.391ZM709.631 188.336V177.584H724.991V157.616H720.383V165.296H709.631V149.936H701.951V133.04H705.023V146.864H712.703V162.224H717.311V154.544H728.063V180.656H712.703V185.264H718.847V188.336H709.631ZM732.671 149.936V142.256H718.847V139.184H735.743V146.864H749.567V149.936H732.671ZM732.671 242.096V208.304H755.711V203.696H748.031V192.944H755.711V188.336H743.423V203.696H728.063V211.376H720.383V225.2H717.311V208.304H724.991V200.624H740.351V185.264H758.783V196.016H751.103V200.624H758.783V211.376H735.743V239.024H748.031V226.736H740.351V215.984H763.391V208.304H774.143V223.664H786.431V203.696H778.751V196.016H771.071V188.336H763.391V177.584H781.823V185.264H786.431V172.976H778.751V146.864H789.503V163.76H786.431V149.936H781.823V169.904H789.503V188.336H778.751V180.656H766.463V185.264H774.143V192.944H781.823V200.624H789.503V226.736H771.071V211.376H766.463V219.056H743.423V223.664H751.103V242.096H732.671ZM694.271 203.696V196.016H671.231V185.264H694.271V180.656H678.911V162.224H697.343V172.976H688.127V169.904H694.271V165.296H681.983V177.584H697.343V188.336H674.303V192.944H697.343V200.624H701.951V163.76H705.023V203.696H694.271ZM732.671 180.656V162.224H743.423V169.904H748.031V162.224H757.247V165.296H751.103V172.976H740.351V165.296H735.743V177.584H749.567V180.656H732.671ZM711.167 172.976V169.904H718.847V172.976H711.167ZM757.247 172.976V169.904H772.607V172.976H757.247ZM663.551 180.656V171.44H666.623V177.584H671.231V171.44H674.303V180.656H663.551ZM648.191 219.056V186.8H651.263V215.984H655.871V185.264H666.623V208.304H671.231V200.624H680.447V203.696H674.303V211.376H663.551V188.336H658.943V219.056H648.191ZM732.671 194.48V186.8H735.743V194.48H732.671ZM763.391 203.696V194.48H766.463V200.624H772.607V203.696H763.391ZM678.911 242.096V234.416H671.231V215.984H678.911V208.304H686.591V202.16H689.663V211.376H681.983V219.056H674.303V231.344H681.983V239.024H686.591V226.736H680.447V223.664H689.663V242.096H678.911ZM709.631 234.416V211.376H705.023V219.056H694.271V209.84H697.343V215.984H701.951V208.304H712.703V231.344H724.991V217.52H728.063V234.416H709.631ZM778.751 217.52V209.84H781.823V217.52H778.751ZM663.551 225.2V217.52H666.623V225.2H663.551ZM701.951 242.096V226.736H695.807V223.664H705.023V239.024H718.847V242.096H701.951ZM755.711 240.56V225.2H758.783V240.56H755.711ZM763.391 242.096V232.88H766.463V239.024H786.431V234.416H772.607V231.344H789.503V242.096H763.391ZM694.271 240.56V232.88H697.343V240.56H694.271ZM822.289 168.88V162.736H814.609V151.984H822.289V136.624H863.761V147.376H848.401V151.984H863.761V159.664H868.369V136.624H876.049V128.944H906.769V121.264H922.129V116.656H914.449V108.976H909.841V116.656H886.801V121.264H900.625V124.336H883.729V113.584H906.769V105.904H917.521V113.584H925.201V124.336H909.841V132.016H879.121V139.696H871.441V162.736H860.689V155.056H845.329V144.304H860.689V139.696H825.361V155.056H817.681V159.664H825.361V168.88H822.289ZM814.609 145.84V128.944H822.289V124.336H814.609V113.584H822.289V105.904H831.505V108.976H825.361V116.656H817.681V121.264H825.361V132.016H817.681V145.84H814.609ZM853.009 122.8V116.656H845.329V105.904H854.545V108.976H848.401V113.584H856.081V122.8H853.009ZM831.505 116.656V113.584H837.649V107.44H840.721V116.656H831.505ZM845.329 132.016V124.336H839.185V121.264H848.401V128.944H868.369V124.336H860.689V113.584H869.905V116.656H863.761V121.264H871.441V132.016H845.329ZM929.809 130.48V115.12H932.881V130.48H929.809ZM829.969 132.016V122.8H833.041V128.944H839.185V132.016H829.969ZM923.665 147.376V144.304H929.809V139.696H922.129V132.016H915.985V128.944H925.201V136.624H932.881V147.376H923.665ZM837.649 201.136V193.456H829.969V182.704H845.329V159.664H856.081V167.344H863.761V178.096H854.545V175.024H860.689V170.416H853.009V162.736H848.401V185.776H833.041V190.384H840.721V198.064H845.329V190.384H853.009V182.704H863.761V190.384H868.369V167.344H876.049V151.984H883.729V136.624H894.481V144.304H909.841V155.056H894.481V162.736H885.265V159.664H891.409V151.984H906.769V147.376H891.409V139.696H886.801V155.056H879.121V170.416H871.441V193.456H860.689V185.776H856.081V193.456H848.401V201.136H837.649ZM914.449 155.056V139.696H900.625V136.624H917.521V151.984H931.345V155.056H914.449ZM829.969 170.416V145.84H833.041V167.344H837.649V145.84H840.721V170.416H829.969ZM900.625 162.736V159.664H923.665V162.736H900.625ZM814.609 178.096V168.88H817.681V175.024H839.185V178.096H814.609ZM814.609 222.64V182.704H825.361V191.92H822.289V185.776H817.681V222.64H814.609ZM823.825 231.856V228.784H829.969V221.104H837.649V216.496H822.289V198.064H833.041V205.744H856.081V216.496H848.401V222.64H845.329V213.424H853.009V208.816H829.969V201.136H825.361V213.424H840.721V224.176H833.041V231.856H823.825ZM862.225 208.816V205.744H868.369V201.136H862.225V198.064H871.441V208.816H862.225ZM831.505 239.536V236.464H837.649V228.784H853.009V221.104H860.689V213.424H871.441V231.856H863.761V239.536H846.865V236.464H860.689V228.784H868.369V216.496H863.761V224.176H856.081V231.856H840.721V239.536H831.505ZM814.609 239.536V230.32H817.681V236.464H823.825V239.536H814.609ZM954.277 142.256V134.576H946.597V123.824H961.957V116.144H969.637V111.536H957.349V119.216H938.917V108.464H948.133V111.536H941.989V116.144H954.277V108.464H972.709V119.216H965.029V126.896H949.669V131.504H957.349V139.184H961.957V133.04H965.029V142.256H954.277ZM954.277 165.296V148.4H957.349V162.224H969.637V157.616H961.957V146.864H969.637V123.824H977.317V108.464H988.069V134.576H980.389V139.184H1000.36V134.576H992.677V117.68H995.749V131.504H1003.43V142.256H977.317V131.504H984.997V111.536H980.389V126.896H972.709V149.936H965.029V154.544H972.709V165.296H954.277ZM1032.61 126.896V123.824H1038.76V116.144H1057.19V123.824H1061.8V116.144H1092.52V111.536H1040.29V108.464H1095.59V119.216H1064.87V126.896H1054.12V119.216H1041.83V126.896H1032.61ZM1069.48 171.44V139.184H1077.16V131.504H1084.84V126.896H1072.55V133.04H1069.48V123.824H1087.91V134.576H1080.23V142.256H1072.55V171.44H1069.48ZM1046.44 133.04V125.36H1049.51V133.04H1046.44ZM1023.4 196.016V172.976H1011.11V188.336H1000.36V180.656H988.069V188.336H977.317V169.904H992.677V165.296H977.317V146.864H995.749V157.616H986.533V154.544H992.677V149.936H980.389V162.224H995.749V172.976H980.389V185.264H984.997V177.584H1003.43V185.264H1008.04V169.904H1026.47V192.944H1031.08V162.224H1046.44V157.616H1038.76V149.936H1031.08V131.504H1041.83V139.184H1049.51V148.4H1046.44V142.256H1038.76V134.576H1034.15V146.864H1041.83V154.544H1049.51V165.296H1034.15V196.016H1023.4ZM1055.65 134.576V131.504H1063.33V134.576H1055.65ZM1055.65 165.296V162.224H1061.8V157.616H1054.12V146.864H1061.8V140.72H1064.87V149.936H1057.19V154.544H1064.87V165.296H1055.65ZM1077.16 156.08V148.4H1080.23V156.08H1077.16ZM1000.36 157.616V148.4H1003.43V154.544H1009.57V157.616H1000.36ZM1001.89 165.296V162.224H1023.4V148.4H1026.47V165.296H1001.89ZM1008.04 288.176V278.96H1011.11V285.104H1015.72V269.744H1023.4V239.024H1038.76V234.416H1015.72V226.736H1008.04V208.304H1018.79V215.984H1031.08V208.304H1041.83V223.664H1046.44V208.304H1054.12V180.656H1038.76V169.904H1064.87V186.8H1061.8V172.976H1041.83V177.584H1057.19V211.376H1049.51V226.736H1038.76V211.376H1034.15V219.056H1015.72V211.376H1011.11V223.664H1018.79V231.344H1041.83V242.096H1026.47V272.816H1018.79V288.176H1008.04ZM963.493 180.656V177.584H969.637V172.976H963.493V169.904H972.709V180.656H963.493ZM1015.72 186.8V179.12H1018.79V186.8H1015.72ZM1032.61 203.696V200.624H1046.44V188.336H1041.83V194.48H1038.76V185.264H1049.51V203.696H1032.61ZM969.637 194.48V186.8H972.709V194.48H969.637ZM992.677 194.48V186.8H995.749V194.48H992.677ZM992.677 219.056V202.16H995.749V215.984H1000.36V200.624H1015.72V196.016H1001.89V192.944H1018.79V203.696H1003.43V219.056H992.677ZM977.317 219.056V209.84H980.389V215.984H984.997V196.016H980.389V202.16H977.317V192.944H988.069V219.056H977.317ZM1023.4 209.84V202.16H1026.47V209.84H1023.4ZM984.997 271.28V265.136H977.317V246.704H992.677V242.096H984.997V223.664H995.749V232.88H992.677V226.736H988.069V239.024H995.749V249.776H980.389V262.064H988.069V271.28H984.997ZM1024.93 226.736V223.664H1032.61V226.736H1024.93ZM969.637 288.176V269.744H980.389V278.96H977.317V272.816H972.709V285.104H984.997V277.424H995.749V285.104H1000.36V272.816H992.677V262.064H1015.72V257.456H1008.04V249.776H1000.36V225.2H1003.43V246.704H1011.11V254.384H1018.79V265.136H995.749V269.744H1003.43V288.176H992.677V280.496H988.069V288.176H969.637ZM1015.72 248.24V242.096H1009.57V239.024H1018.79V248.24H1015.72ZM994.213 257.456V254.384H1001.89V257.456H994.213ZM1031.08 263.6V255.92H1034.15V263.6H1031.08Z" fill="#DC2626"/>
<path d="M352.913 117.68V108.464H363.665V117.68H360.593V111.536H355.985V117.68H352.913ZM398.993 157.616V126.896H394.385V134.576H386.705V142.256H375.953V123.824H383.633V116.144H391.313V111.536H371.345V116.144H377.489V119.216H368.273V108.464H394.385V119.216H386.705V126.896H379.025V139.184H383.633V131.504H391.313V123.824H402.065V154.544H406.673V148.4H409.745V157.616H398.993ZM406.673 134.576V119.216H398.993V108.464H417.425V116.144H422.033V110H425.105V119.216H414.353V111.536H402.065V116.144H409.745V131.504H414.353V123.824H425.105V131.504H429.713V123.824H437.393V119.216H431.249V116.144H440.465V126.896H432.785V134.576H422.033V126.896H417.425V134.576H406.673ZM337.553 133.04V117.68H340.625V133.04H337.553ZM345.233 133.04V123.824H355.985V133.04H352.913V126.896H348.305V133.04H345.233ZM362.129 142.256V139.184H368.273V134.576H360.593V123.824H369.809V126.896H363.665V131.504H371.345V142.256H362.129ZM438.929 134.576V131.504H445.073V125.36H448.145V134.576H438.929ZM360.593 157.616V149.936H352.913V142.256H332.945V149.936H322.193V131.504H329.873V125.36H332.945V134.576H325.265V146.864H329.873V139.184H355.985V146.864H363.665V154.544H368.273V146.864H391.313V140.72H394.385V149.936H371.345V157.616H360.593ZM422.033 157.616V149.936H414.353V139.184H440.465V149.936H431.249V146.864H437.393V142.256H417.425V146.864H425.105V154.544H431.249V157.616H422.033ZM329.873 165.296V157.616H314.513V140.72H317.585V154.544H332.945V162.224H352.913V157.616H346.769V154.544H355.985V165.296H329.873ZM452.753 148.4V140.72H455.825V148.4H452.753ZM337.553 156.08V146.864H346.769V149.936H340.625V156.08H337.553ZM445.073 157.616V148.4H448.145V154.544H461.969V157.616H445.073ZM414.353 165.296V156.08H417.425V162.224H437.393V156.08H440.465V165.296H414.353ZM352.913 219.056V177.584H368.273V165.296H363.665V172.976H348.305V180.656H329.873V172.976H317.585V192.944H329.873V188.336H323.729V185.264H332.945V196.016H314.513V169.904H332.945V177.584H345.233V169.904H360.593V162.224H371.345V180.656H355.985V215.984H362.129V219.056H352.913ZM437.393 188.336V169.904H445.073V162.224H461.969V165.296H448.145V172.976H440.465V185.264H460.433V180.656H446.609V177.584H463.505V188.336H437.393ZM400.529 165.296V162.224H408.209V165.296H400.529ZM316.049 165.296V162.224H323.729V165.296H316.049ZM422.033 234.416V223.664H445.073V211.376H429.713V203.696H422.033V196.016H406.673V177.584H417.425V185.264H422.033V172.976H402.065V200.624H409.745V208.304H414.353V202.16H417.425V211.376H406.673V203.696H398.993V169.904H425.105V188.336H414.353V180.656H409.745V192.944H425.105V200.624H432.785V208.304H448.145V226.736H425.105V231.344H431.249V234.416H422.033ZM454.289 172.976V169.904H461.969V172.976H454.289ZM429.713 179.12V171.44H432.785V179.12H429.713ZM329.873 225.2V219.056H322.193V211.376H314.513V200.624H337.553V185.264H348.305V211.376H340.625V215.984H346.769V219.056H337.553V208.304H345.233V188.336H340.625V203.696H317.585V208.304H325.265V215.984H332.945V225.2H329.873ZM362.129 188.336V185.264H369.809V188.336H362.129ZM429.713 194.48V186.8H432.785V194.48H429.713ZM369.809 203.696V200.624H375.953V196.016H362.129V192.944H379.025V203.696H369.809ZM437.393 202.16V192.944H448.145V202.16H445.073V196.016H440.465V202.16H437.393ZM452.753 209.84V192.944H461.969V196.016H455.825V209.84H452.753ZM406.673 225.2V219.056H398.993V211.376H383.633V200.624H392.849V203.696H386.705V208.304H402.065V215.984H409.745V225.2H406.673ZM375.953 242.096V234.416H337.553V223.664H368.273V211.376H360.593V202.16H363.665V208.304H371.345V226.736H340.625V231.344H379.025V239.024H423.569V242.096H375.953ZM422.033 219.056V209.84H425.105V215.984H438.929V219.056H422.033ZM391.313 234.416V219.056H379.025V223.664H385.169V226.736H375.953V215.984H394.385V231.344H398.993V225.2H402.065V234.416H391.313ZM414.353 225.2V217.52H417.425V225.2H414.353ZM408.209 234.416V231.344H415.889V234.416H408.209ZM362.129 242.096V239.024H369.809V242.096H362.129ZM482.859 185.776V175.024H490.539V162.736H482.859V151.984H490.539V144.304H498.219V121.264H513.579V108.976H508.971V116.656H490.539V105.904H499.755V108.976H493.611V113.584H505.899V105.904H516.651V124.336H501.291V147.376H493.611V155.056H485.931V159.664H493.611V178.096H485.931V182.704H492.075V185.776H482.859ZM613.419 239.536V230.32H616.491V236.464H628.779V231.856H621.099V221.104H628.779V216.496H616.491V224.176H608.811V231.856H598.059V216.496H593.451V224.176H582.699V208.816H578.091V216.496H567.339V198.064H582.699V193.456H567.339V151.984H575.019V139.696H559.659V128.944H567.339V124.336H559.659V116.656H555.051V139.696H528.939V108.976H524.331V139.696H508.971V144.304H516.651V151.984H524.331V159.664H528.939V144.304H539.691V151.984H544.299V145.84H547.371V155.056H536.619V147.376H532.011V162.736H521.259V155.056H513.579V147.376H505.899V136.624H521.259V105.904H532.011V136.624H551.979V113.584H562.731V121.264H570.411V132.016H562.731V136.624H578.091V155.056H570.411V190.384H585.771V201.136H570.411V213.424H575.019V205.744H585.771V221.104H590.379V213.424H601.131V228.784H605.739V221.104H613.419V213.424H631.851V224.176H624.171V228.784H631.851V239.536H613.419ZM575.019 185.776V176.56H578.091V182.704H582.699V170.416H575.019V159.664H613.419V136.624H621.099V132.016H598.059V108.976H570.411V113.584H593.451V124.336H576.555V121.264H590.379V116.656H567.339V105.904H601.131V128.944H624.171V139.696H616.491V162.736H578.091V167.344H585.771V185.776H575.019ZM605.739 124.336V115.12H608.811V121.264H614.955V124.336H605.739ZM536.619 132.016V115.12H539.691V128.944H544.299V122.8H547.371V132.016H536.619ZM482.859 132.016V115.12H485.931V128.944H490.539V122.8H493.611V132.016H482.859ZM584.235 155.056V151.984H605.739V147.376H582.699V132.016H576.555V128.944H585.771V144.304H608.811V155.056H584.235ZM507.435 132.016V128.944H515.115V132.016H507.435ZM590.379 139.696V130.48H593.451V136.624H607.275V139.696H590.379ZM482.859 145.84V136.624H492.075V139.696H485.931V145.84H482.859ZM628.779 184.24V170.416H621.099V151.984H628.779V147.376H622.635V144.304H631.851V155.056H624.171V167.344H631.851V184.24H628.779ZM553.515 155.056V151.984H559.659V147.376H553.515V144.304H562.731V155.056H553.515ZM484.395 208.816V205.744H505.899V190.384H513.579V178.096H498.219V151.984H508.971V159.664H516.651V170.416H507.435V167.344H513.579V162.736H505.899V155.056H501.291V175.024H516.651V193.456H508.971V208.816H484.395ZM622.635 208.816V205.744H628.779V193.456H621.099V178.096H613.419V170.416H601.131V178.096H590.379V168.88H593.451V175.024H598.059V167.344H616.491V175.024H624.171V190.384H631.851V208.816H622.635ZM522.795 185.776V182.704H528.939V167.344H539.691V184.24H536.619V170.416H532.011V185.776H522.795ZM521.259 176.56V168.88H524.331V176.56H521.259ZM498.219 199.6V182.704H507.435V185.776H501.291V199.6H498.219ZM605.739 214.96V205.744H613.419V201.136H590.379V182.704H608.811V190.384H613.419V184.24H616.491V193.456H605.739V185.776H593.451V198.064H616.491V208.816H608.811V214.96H605.739ZM482.859 201.136V190.384H492.075V193.456H485.931V198.064H492.075V201.136H482.859ZM528.939 239.536V228.784H536.619V193.456H530.475V190.384H539.691V231.856H532.011V236.464H538.155V239.536H528.939ZM505.899 239.536V231.856H501.291V238H498.219V228.784H508.971V236.464H513.579V213.424H524.331V221.104H528.939V201.136H516.651V205.744H522.795V208.816H513.579V198.064H532.011V224.176H521.259V216.496H516.651V239.536H505.899ZM591.915 208.816V205.744H599.595V208.816H591.915ZM482.859 239.536V228.784H490.539V224.176H482.859V213.424H501.291V221.104H505.899V214.96H508.971V224.176H498.219V216.496H485.931V221.104H493.611V231.856H485.931V236.464H492.075V239.536H482.859ZM567.339 239.536V221.104H578.091V230.32H575.019V224.176H570.411V236.464H582.699V228.784H593.451V236.464H607.275V239.536H590.379V231.856H585.771V239.536H567.339ZM521.259 238V230.32H524.331V238H521.259ZM678.911 149.936V139.184H688.127V142.256H681.983V146.864H694.271V134.576H686.591V123.824H717.311V116.144H728.063V131.504H732.671V111.536H705.023V119.216H686.591V108.464H695.807V111.536H689.663V116.144H701.951V108.464H735.743V134.576H724.991V119.216H720.383V126.896H689.663V131.504H697.343V149.936H678.911ZM740.351 117.68V108.464H757.247V111.536H743.423V117.68H740.351ZM655.871 148.4V139.184H663.551V123.824H678.911V119.216H672.767V116.144H681.983V126.896H666.623V142.256H658.943V148.4H655.871ZM740.351 140.72V123.824H748.031V116.144H758.783V123.824H763.391V116.144H772.607V119.216H766.463V126.896H755.711V119.216H751.103V126.896H743.423V140.72H740.351ZM772.607 126.896V123.824H780.287V126.896H772.607ZM671.231 148.4V131.504H680.447V134.576H674.303V148.4H671.231ZM709.631 140.72V131.504H718.847V134.576H712.703V140.72H709.631ZM763.391 165.296V149.936H758.783V157.616H734.207V154.544H755.711V146.864H766.463V162.224H771.071V139.184H778.751V134.576H751.103V139.184H764.927V142.256H748.031V131.504H781.823V142.256H774.143V165.296H763.391ZM709.631 188.336V177.584H724.991V157.616H720.383V165.296H709.631V149.936H701.951V133.04H705.023V146.864H712.703V162.224H717.311V154.544H728.063V180.656H712.703V185.264H718.847V188.336H709.631ZM732.671 149.936V142.256H718.847V139.184H735.743V146.864H749.567V149.936H732.671ZM732.671 242.096V208.304H755.711V203.696H748.031V192.944H755.711V188.336H743.423V203.696H728.063V211.376H720.383V225.2H717.311V208.304H724.991V200.624H740.351V185.264H758.783V196.016H751.103V200.624H758.783V211.376H735.743V239.024H748.031V226.736H740.351V215.984H763.391V208.304H774.143V223.664H786.431V203.696H778.751V196.016H771.071V188.336H763.391V177.584H781.823V185.264H786.431V172.976H778.751V146.864H789.503V163.76H786.431V149.936H781.823V169.904H789.503V188.336H778.751V180.656H766.463V185.264H774.143V192.944H781.823V200.624H789.503V226.736H771.071V211.376H766.463V219.056H743.423V223.664H751.103V242.096H732.671ZM694.271 203.696V196.016H671.231V185.264H694.271V180.656H678.911V162.224H697.343V172.976H688.127V169.904H694.271V165.296H681.983V177.584H697.343V188.336H674.303V192.944H697.343V200.624H701.951V163.76H705.023V203.696H694.271ZM732.671 180.656V162.224H743.423V169.904H748.031V162.224H757.247V165.296H751.103V172.976H740.351V165.296H735.743V177.584H749.567V180.656H732.671ZM711.167 172.976V169.904H718.847V172.976H711.167ZM757.247 172.976V169.904H772.607V172.976H757.247ZM663.551 180.656V171.44H666.623V177.584H671.231V171.44H674.303V180.656H663.551ZM648.191 219.056V186.8H651.263V215.984H655.871V185.264H666.623V208.304H671.231V200.624H680.447V203.696H674.303V211.376H663.551V188.336H658.943V219.056H648.191ZM732.671 194.48V186.8H735.743V194.48H732.671ZM763.391 203.696V194.48H766.463V200.624H772.607V203.696H763.391ZM678.911 242.096V234.416H671.231V215.984H678.911V208.304H686.591V202.16H689.663V211.376H681.983V219.056H674.303V231.344H681.983V239.024H686.591V226.736H680.447V223.664H689.663V242.096H678.911ZM709.631 234.416V211.376H705.023V219.056H694.271V209.84H697.343V215.984H701.951V208.304H712.703V231.344H724.991V217.52H728.063V234.416H709.631ZM778.751 217.52V209.84H781.823V217.52H778.751ZM663.551 225.2V217.52H666.623V225.2H663.551ZM701.951 242.096V226.736H695.807V223.664H705.023V239.024H718.847V242.096H701.951ZM755.711 240.56V225.2H758.783V240.56H755.711ZM763.391 242.096V232.88H766.463V239.024H786.431V234.416H772.607V231.344H789.503V242.096H763.391ZM694.271 240.56V232.88H697.343V240.56H694.271ZM822.289 168.88V162.736H814.609V151.984H822.289V136.624H863.761V147.376H848.401V151.984H863.761V159.664H868.369V136.624H876.049V128.944H906.769V121.264H922.129V116.656H914.449V108.976H909.841V116.656H886.801V121.264H900.625V124.336H883.729V113.584H906.769V105.904H917.521V113.584H925.201V124.336H909.841V132.016H879.121V139.696H871.441V162.736H860.689V155.056H845.329V144.304H860.689V139.696H825.361V155.056H817.681V159.664H825.361V168.88H822.289ZM814.609 145.84V128.944H822.289V124.336H814.609V113.584H822.289V105.904H831.505V108.976H825.361V116.656H817.681V121.264H825.361V132.016H817.681V145.84H814.609ZM853.009 122.8V116.656H845.329V105.904H854.545V108.976H848.401V113.584H856.081V122.8H853.009ZM831.505 116.656V113.584H837.649V107.44H840.721V116.656H831.505ZM845.329 132.016V124.336H839.185V121.264H848.401V128.944H868.369V124.336H860.689V113.584H869.905V116.656H863.761V121.264H871.441V132.016H845.329ZM929.809 130.48V115.12H932.881V130.48H929.809ZM829.969 132.016V122.8H833.041V128.944H839.185V132.016H829.969ZM923.665 147.376V144.304H929.809V139.696H922.129V132.016H915.985V128.944H925.201V136.624H932.881V147.376H923.665ZM837.649 201.136V193.456H829.969V182.704H845.329V159.664H856.081V167.344H863.761V178.096H854.545V175.024H860.689V170.416H853.009V162.736H848.401V185.776H833.041V190.384H840.721V198.064H845.329V190.384H853.009V182.704H863.761V190.384H868.369V167.344H876.049V151.984H883.729V136.624H894.481V144.304H909.841V155.056H894.481V162.736H885.265V159.664H891.409V151.984H906.769V147.376H891.409V139.696H886.801V155.056H879.121V170.416H871.441V193.456H860.689V185.776H856.081V193.456H848.401V201.136H837.649ZM914.449 155.056V139.696H900.625V136.624H917.521V151.984H931.345V155.056H914.449ZM829.969 170.416V145.84H833.041V167.344H837.649V145.84H840.721V170.416H829.969ZM900.625 162.736V159.664H923.665V162.736H900.625ZM814.609 178.096V168.88H817.681V175.024H839.185V178.096H814.609ZM814.609 222.64V182.704H825.361V191.92H822.289V185.776H817.681V222.64H814.609ZM823.825 231.856V228.784H829.969V221.104H837.649V216.496H822.289V198.064H833.041V205.744H856.081V216.496H848.401V222.64H845.329V213.424H853.009V208.816H829.969V201.136H825.361V213.424H840.721V224.176H833.041V231.856H823.825ZM862.225 208.816V205.744H868.369V201.136H862.225V198.064H871.441V208.816H862.225ZM831.505 239.536V236.464H837.649V228.784H853.009V221.104H860.689V213.424H871.441V231.856H863.761V239.536H846.865V236.464H860.689V228.784H868.369V216.496H863.761V224.176H856.081V231.856H840.721V239.536H831.505ZM814.609 239.536V230.32H817.681V236.464H823.825V239.536H814.609ZM954.277 142.256V134.576H946.597V123.824H961.957V116.144H969.637V111.536H957.349V119.216H938.917V108.464H948.133V111.536H941.989V116.144H954.277V108.464H972.709V119.216H965.029V126.896H949.669V131.504H957.349V139.184H961.957V133.04H965.029V142.256H954.277ZM954.277 165.296V148.4H957.349V162.224H969.637V157.616H961.957V146.864H969.637V123.824H977.317V108.464H988.069V134.576H980.389V139.184H1000.36V134.576H992.677V117.68H995.749V131.504H1003.43V142.256H977.317V131.504H984.997V111.536H980.389V126.896H972.709V149.936H965.029V154.544H972.709V165.296H954.277ZM1032.61 126.896V123.824H1038.76V116.144H1057.19V123.824H1061.8V116.144H1092.52V111.536H1040.29V108.464H1095.59V119.216H1064.87V126.896H1054.12V119.216H1041.83V126.896H1032.61ZM1069.48 171.44V139.184H1077.16V131.504H1084.84V126.896H1072.55V133.04H1069.48V123.824H1087.91V134.576H1080.23V142.256H1072.55V171.44H1069.48ZM1046.44 133.04V125.36H1049.51V133.04H1046.44ZM1023.4 196.016V172.976H1011.11V188.336H1000.36V180.656H988.069V188.336H977.317V169.904H992.677V165.296H977.317V146.864H995.749V157.616H986.533V154.544H992.677V149.936H980.389V162.224H995.749V172.976H980.389V185.264H984.997V177.584H1003.43V185.264H1008.04V169.904H1026.47V192.944H1031.08V162.224H1046.44V157.616H1038.76V149.936H1031.08V131.504H1041.83V139.184H1049.51V148.4H1046.44V142.256H1038.76V134.576H1034.15V146.864H1041.83V154.544H1049.51V165.296H1034.15V196.016H1023.4ZM1055.65 134.576V131.504H1063.33V134.576H1055.65ZM1055.65 165.296V162.224H1061.8V157.616H1054.12V146.864H1061.8V140.72H1064.87V149.936H1057.19V154.544H1064.87V165.296H1055.65ZM1077.16 156.08V148.4H1080.23V156.08H1077.16ZM1000.36 157.616V148.4H1003.43V154.544H1009.57V157.616H1000.36ZM1001.89 165.296V162.224H1023.4V148.4H1026.47V165.296H1001.89ZM1008.04 288.176V278.96H1011.11V285.104H1015.72V269.744H1023.4V239.024H1038.76V234.416H1015.72V226.736H1008.04V208.304H1018.79V215.984H1031.08V208.304H1041.83V223.664H1046.44V208.304H1054.12V180.656H1038.76V169.904H1064.87V186.8H1061.8V172.976H1041.83V177.584H1057.19V211.376H1049.51V226.736H1038.76V211.376H1034.15V219.056H1015.72V211.376H1011.11V223.664H1018.79V231.344H1041.83V242.096H1026.47V272.816H1018.79V288.176H1008.04ZM963.493 180.656V177.584H969.637V172.976H963.493V169.904H972.709V180.656H963.493ZM1015.72 186.8V179.12H1018.79V186.8H1015.72ZM1032.61 203.696V200.624H1046.44V188.336H1041.83V194.48H1038.76V185.264H1049.51V203.696H1032.61ZM969.637 194.48V186.8H972.709V194.48H969.637ZM992.677 194.48V186.8H995.749V194.48H992.677ZM992.677 219.056V202.16H995.749V215.984H1000.36V200.624H1015.72V196.016H1001.89V192.944H1018.79V203.696H1003.43V219.056H992.677ZM977.317 219.056V209.84H980.389V215.984H984.997V196.016H980.389V202.16H977.317V192.944H988.069V219.056H977.317ZM1023.4 209.84V202.16H1026.47V209.84H1023.4ZM984.997 271.28V265.136H977.317V246.704H992.677V242.096H984.997V223.664H995.749V232.88H992.677V226.736H988.069V239.024H995.749V249.776H980.389V262.064H988.069V271.28H984.997ZM1024.93 226.736V223.664H1032.61V226.736H1024.93ZM969.637 288.176V269.744H980.389V278.96H977.317V272.816H972.709V285.104H984.997V277.424H995.749V285.104H1000.36V272.816H992.677V262.064H1015.72V257.456H1008.04V249.776H1000.36V225.2H1003.43V246.704H1011.11V254.384H1018.79V265.136H995.749V269.744H1003.43V288.176H992.677V280.496H988.069V288.176H969.637ZM1015.72 248.24V242.096H1009.57V239.024H1018.79V248.24H1015.72ZM994.213 257.456V254.384H1001.89V257.456H994.213ZM1031.08 263.6V255.92H1034.15V263.6H1031.08Z" fill="black"/>
</g>
<defs>
<filter id="filter0_d_6_3" x="19.589" y="59.824" width="1082" height="234.352" filterUnits="userSpaceOnUse" color-interpolation-filters="sRGB">
<feFlood flood-opacity="0" result="BackgroundImageFix"/>
<feColorMatrix in="SourceAlpha" type="matrix" values="0 0 0 0 0 0 0 0 0 0 0 0 0 0 0 0 0 0 127 0" result="hardAlpha"/>
<feOffset dx="6" dy="6"/>
<feComposite in2="hardAlpha" operator="out"/>
<feColorMatrix type="matrix" values="0 0 0 0 0 0 0 0 0 0 0 0 0 0 0 0 0 0 0.25 0"/>
<feBlend mode="normal" in2="BackgroundImageFix" result="effect1_dropShadow_6_3"/>
<feBlend mode="normal" in="SourceGraphic" in2="effect1_dropShadow_6_3" result="shape"/>
</filter>
</defs>
</svg>
