<svg width="100" height="100" viewBox="0 0 100 100" fill="none" xmlns="http://www.w3.org/2000/svg">
<path d="M24.8449 21.4225C24.8449 22.9126 23.8926 24.1804 22.5633 24.6502V40.8165L27.4934 53.3352L22.5633 65.9146C20.0535 65.9146 18 63.8629 18 61.3554V45.3757C18 43.6971 18.9203 42.2227 20.2816 41.4314V24.6502C18.9524 24.1804 18 22.9126 18 21.4225C18 19.5323 19.5323 18 21.4225 18C23.3127 18 24.8449 19.5323 24.8449 21.4225Z" fill="#F8312F"/>
<path d="M82 21.5366C82 23.0905 80.9979 24.4104 79.6045 24.885V41.2724C80.966 42.0643 81.8862 43.5401 81.8862 45.2203V61.2146C81.8862 63.7245 79.8327 65.7779 77.3229 65.7779L70.6137 52.82L77.3229 40.657V24.8851C75.9295 24.4105 74.9271 23.0906 74.9271 21.5366C74.9271 19.5834 76.5104 18 78.4637 18C80.4168 18 82 19.5834 82 21.5366Z" fill="#F8312F"/>
<path d="M38.5348 23.7041C38.5348 21.8139 40.0672 20.2816 41.9573 20.2816H57.9288C59.8189 20.2816 61.3513 21.8139 61.3513 23.7041C61.3513 25.2541 60.3209 26.5634 58.9079 26.9845C58.277 27.1725 57.6083 27.2215 56.9771 27.4085L50.0113 29.4719L42.8946 27.3996C42.2728 27.2185 41.6153 27.1711 40.9938 26.9891C39.5727 26.573 38.5348 25.2597 38.5348 23.7041Z" fill="#FFB02E"/>
<path d="M63.747 81.8861H36.1391C28.6325 81.8861 22.5633 75.817 22.5633 68.3103V40.8849C22.5633 33.287 28.7237 27.1266 36.3216 27.1266H63.5873C71.1624 27.1266 77.3228 33.287 77.3228 40.8849V68.3331C77.3228 75.817 71.2537 81.8861 63.747 81.8861Z" fill="#CDC4D6"/>
<path d="M34.536 55.6472H65.3501C70.6654 55.6472 75.0412 51.2687 75.0412 45.9502C75.0412 40.6088 70.6883 36.2532 65.3501 36.2532H34.536C29.1979 36.2532 24.8449 40.6088 24.8449 45.9502C24.8449 51.2915 29.1979 55.6472 34.536 55.6472Z" fill="#212121"/>
<path d="M44.1746 72.7596H55.7115C57.5619 72.7596 59.0697 71.2229 59.0697 69.3371C59.0697 67.4513 57.5619 65.9146 55.7115 65.9146H44.1746C42.3242 65.9146 40.8165 67.4513 40.8165 69.3371C40.8165 71.2229 42.3242 72.7596 44.1746 72.7596Z" fill="#212121"/>
<path d="M36.8236 40.8165C35.2484 40.8165 33.9715 42.0933 33.9715 43.6685V49.3727C33.9715 50.9479 35.2484 52.2247 36.8236 52.2247C38.3988 52.2247 39.6756 50.9479 39.6756 49.3727V43.6685C39.6756 42.0933 38.3988 40.8165 36.8236 40.8165Z" fill="#00A6ED"/>
<path d="M63.0625 40.8165C61.4873 40.8165 60.2105 42.0933 60.2105 43.6685V49.3727C60.2105 50.9479 61.4873 52.2247 63.0625 52.2247C64.6378 52.2247 65.9146 50.9479 65.9146 49.3727V43.6685C65.9146 42.0933 64.6378 40.8165 63.0625 40.8165Z" fill="#00A6ED"/>
<path d="M67.8071 89.6058L69.6456 89.1137L70.1389 88.0452L73.3251 88.1289L76.6388 87.2419L77.3852 86.0848L80.4858 86.2122L83.723 85.3457C85.9717 84.7461 86.7338 81.9227 85.0848 80.2736L73.4414 68.6178C71.7923 66.9687 68.9689 67.7183 68.3693 69.9795L67.404 73.5857L67.5392 76.5148L66.4388 77.1919L65.452 80.8787L65.6173 83.6868L64.5386 84.2911L64.1092 85.8954C63.497 88.1441 65.5584 90.2055 67.8071 89.6058Z" fill="#F9C23C"/>
<path d="M71.2437 83.55C69.3943 81.8231 67.8191 79.7439 66.4282 77.2316L67.3993 73.6034C68.9965 77.0988 70.7932 79.7114 72.9485 81.724C75.0256 83.6638 77.4861 85.0931 80.5321 86.1997L76.6229 87.2461C74.6216 86.2503 72.8418 85.0424 71.2437 83.55Z" fill="#3F5FFF"/>
<path d="M66.854 87.09C65.9699 86.2632 65.2099 85.3372 64.5365 84.2992L65.467 80.8226C66.3449 82.6843 67.3281 84.1132 68.5602 85.2653C69.7893 86.4148 71.3191 87.3383 73.3551 88.1208L69.6212 89.1202C68.5933 88.5298 67.6777 87.8603 66.854 87.09Z" fill="#3F5FFF"/>
<path d="M85.3721 84.3463C87.1211 82.5973 84.9473 77.6002 80.5249 73.1777C76.1024 68.7552 71.1177 66.5815 69.3687 68.3305C67.6197 70.0795 69.7935 75.0766 74.216 79.4991C78.6384 83.9215 83.6356 86.0828 85.3721 84.3463Z" fill="#6D4534"/>
<path d="M76.0024 61.3345C77.5516 64.2329 77.8639 67.5559 76.9019 70.6916C76.0899 73.3651 74.4159 75.6263 72.1422 77.1879C71.4925 76.3759 70.9304 75.5638 70.4556 74.7768C72.1921 73.59 73.4664 71.8659 74.091 69.8296C74.8281 67.4435 74.5908 64.9199 73.4164 62.7212C73.0292 61.9966 73.304 61.1096 74.0161 60.7349C74.7407 60.3476 75.6277 60.6224 76.0024 61.3345Z" fill="#F70A8D"/>
<path d="M89.1697 73.131C91.5317 71.265 94.5952 70.8851 97.2324 71.8687C97.91 72.1214 98.6644 71.777 98.9171 71.0992C99.1698 70.4216 98.8253 69.6674 98.1477 69.4147C94.6884 68.1246 90.6559 68.6192 87.5461 71.0758C86.9785 71.524 86.882 72.3475 87.3303 72.9151C87.7786 73.4826 88.6021 73.5793 89.1697 73.131Z" fill="#F70A8D"/>
<path d="M69.0064 64.3578C69.8068 64.3578 70.4556 63.7089 70.4556 62.9086C70.4556 62.1082 69.8068 61.4594 69.0064 61.4594C68.2061 61.4594 67.5573 62.1082 67.5573 62.9086C67.5573 63.7089 68.2061 64.3578 69.0064 64.3578Z" fill="#F70A8D"/>
<path d="M94.1421 62.9086C94.1421 63.7089 93.4932 64.3578 92.6929 64.3578C91.8925 64.3578 91.2437 63.7089 91.2437 62.9086C91.2437 62.1082 91.8925 61.4594 92.6929 61.4594C93.4932 61.4594 94.1421 62.1082 94.1421 62.9086Z" fill="#F70A8D"/>
<path d="M77.1018 57.1993C77.1018 57.8617 76.5649 58.3986 75.9025 58.3986C75.2401 58.3986 74.7032 57.8617 74.7032 57.1993C74.7032 56.537 75.2401 56 75.9025 56C76.5649 56 77.1018 56.537 77.1018 57.1993Z" fill="#F9C23C"/>
<path d="M93.33 82.7472C93.33 83.4165 92.7875 83.959 92.1182 83.959C91.449 83.959 90.9064 83.4165 90.9064 82.7472C90.9064 82.078 91.449 81.5354 92.1182 81.5354C92.7875 81.5354 93.33 82.078 93.33 82.7472Z" fill="#F9C23C"/>
<path d="M88.5203 57.2743C88.3204 57.0994 88.0705 56.9869 87.7957 56.9744C87.1211 56.937 86.5464 57.4492 86.4964 58.1238C86.409 59.498 85.4595 61.9841 85.0972 62.8211C85.0972 62.8273 85.0941 62.8336 85.091 62.8398C85.0879 62.8461 85.0847 62.8523 85.0847 62.8586C85.0178 63.0236 84.9462 63.1862 84.87 63.3464C84.7426 63.1868 84.6018 63.0407 84.4476 62.9086C84.0978 62.5962 83.673 62.3589 83.1733 62.1965L83.1358 62.184C81.4493 61.6218 79.6129 62.5338 79.0507 64.2328C78.7758 65.0573 78.8383 65.9318 79.2256 66.7064C79.6129 67.4809 80.275 68.0556 81.0995 68.3305C81.188 68.3599 81.2778 68.3787 81.3674 68.3872C81.9985 68.5577 82.6094 68.5636 83.1974 68.4057C83.1618 68.5772 83.1205 68.7478 83.0734 68.9176C82.8985 69.5673 83.2858 70.2419 83.9354 70.4168C84.585 70.5917 85.2596 70.2044 85.4345 69.5548C85.716 68.5371 85.8379 67.5007 85.8004 66.4537C86.4505 65.6394 86.9697 64.7423 87.3584 63.7706L87.3768 63.726C87.6084 63.1656 88.8237 60.2252 88.945 58.2612C88.9575 57.8739 88.7951 57.5116 88.5203 57.2743ZM82.4238 64.5076C82.7678 64.6223 83.1205 64.8153 83.2714 65.6021C82.6561 66.1736 82.2613 66.1109 81.9115 65.9943C81.8694 65.9803 81.8271 65.9687 81.7846 65.9594C81.626 65.8849 81.4983 65.7532 81.4243 65.5945C81.3244 65.4071 81.3119 65.1948 81.3868 64.9949C81.5243 64.5826 81.974 64.3577 82.3863 64.4952L82.4238 64.5076Z" fill="#00A6ED"/>
<path d="M84.3227 74.9392C88.5828 73.7524 93.0427 74.2895 96.8905 76.4633C97.6026 76.8756 97.8525 77.7626 97.4652 78.4622C97.0654 79.1743 96.1659 79.4241 95.4538 79.0243C92.2931 77.2504 88.6202 76.8006 85.1222 77.7751C82.2364 78.5746 79.7628 80.2736 77.9763 82.6223C77.2143 82.0976 76.4272 81.4979 75.6526 80.8233C77.8139 77.9874 80.8247 75.9136 84.3227 74.9392Z" fill="#00A6ED"/>
<path d="M82.2664 73.4717C82.2664 74.2652 81.6231 74.9083 80.8297 74.9083C80.0363 74.9083 79.393 74.2652 79.393 73.4717C79.393 72.6782 80.0363 72.035 80.8297 72.035C81.6231 72.035 82.2664 72.6782 82.2664 73.4717Z" fill="#00A6ED"/>
</svg>
