<svg width="100" height="100" viewBox="0 0 100 100" fill="none" xmlns="http://www.w3.org/2000/svg">
<path d="M24.8449 21.4225C24.8449 22.9126 23.8926 24.1804 22.5633 24.6502V40.8165L27.4934 53.3352L22.5633 65.9146C20.0535 65.9146 18 63.8629 18 61.3554V45.3757C18 43.6971 18.9203 42.2227 20.2816 41.4314V24.6502C18.9524 24.1804 18 22.9126 18 21.4225C18 19.5323 19.5323 18 21.4225 18C23.3127 18 24.8449 19.5323 24.8449 21.4225Z" fill="#F8312F"/>
<path d="M82 21.5366C82 23.0905 80.9979 24.4104 79.6045 24.885V41.2724C80.966 42.0643 81.8862 43.5401 81.8862 45.2203V61.2146C81.8862 63.7245 79.8327 65.7779 77.3229 65.7779L70.6137 52.82L77.3229 40.657V24.8851C75.9295 24.4105 74.9271 23.0906 74.9271 21.5366C74.9271 19.5834 76.5104 18 78.4637 18C80.4168 18 82 19.5834 82 21.5366Z" fill="#F8312F"/>
<path d="M38.5348 23.7041C38.5348 21.8139 40.0672 20.2816 41.9573 20.2816H57.9288C59.8189 20.2816 61.3513 21.8139 61.3513 23.7041C61.3513 25.2541 60.3209 26.5634 58.9079 26.9845C58.277 27.1725 57.6083 27.2215 56.9771 27.4085L50.0113 29.4719L42.8946 27.3996C42.2728 27.2185 41.6153 27.1711 40.9938 26.9891C39.5727 26.573 38.5348 25.2597 38.5348 23.7041Z" fill="#FFB02E"/>
<path d="M63.747 81.8861H36.1391C28.6325 81.8861 22.5633 75.817 22.5633 68.3103V40.8849C22.5633 33.287 28.7237 27.1266 36.3216 27.1266H63.5873C71.1624 27.1266 77.3228 33.287 77.3228 40.8849V68.3331C77.3228 75.817 71.2537 81.8861 63.747 81.8861Z" fill="#CDC4D6"/>
<path d="M34.536 55.6472H65.3501C70.6654 55.6472 75.0412 51.2687 75.0412 45.9502C75.0412 40.6088 70.6883 36.2532 65.3501 36.2532H34.536C29.1979 36.2532 24.8449 40.6088 24.8449 45.9502C24.8449 51.2915 29.1979 55.6472 34.536 55.6472Z" fill="#212121"/>
<path d="M44.1746 72.7596H55.7115C57.5619 72.7596 59.0697 71.2229 59.0697 69.3371C59.0697 67.4513 57.5619 65.9146 55.7115 65.9146H44.1746C42.3242 65.9146 40.8165 67.4513 40.8165 69.3371C40.8165 71.2229 42.3242 72.7596 44.1746 72.7596Z" fill="#212121"/>
<path d="M36.8236 40.8165C35.2484 40.8165 33.9715 42.0933 33.9715 43.6685V49.3727C33.9715 50.9479 35.2484 52.2247 36.8236 52.2247C38.3988 52.2247 39.6756 50.9479 39.6756 49.3727V43.6685C39.6756 42.0933 38.3988 40.8165 36.8236 40.8165Z" fill="#00A6ED"/>
<path d="M63.0625 40.8165C61.4873 40.8165 60.2105 42.0933 60.2105 43.6685V49.3727C60.2105 50.9479 61.4873 52.2247 63.0625 52.2247C64.6378 52.2247 65.9146 50.9479 65.9146 49.3727V43.6685C65.9146 42.0933 64.6378 40.8165 63.0625 40.8165Z" fill="#00A6ED"/>
</svg>
