<svg width="270" height="250" viewBox="0 0 270 250" fill="none" xmlns="http://www.w3.org/2000/svg">
<path d="M24 12C24 17.2249 20.6608 21.6698 16 23.3172V80L33.286 123.894L16 168C7.2 168 0 160.806 0 152.014V95.9856C0 90.1 3.22672 84.9304 8 82.156V23.3172C3.3392 21.6698 0 17.2249 0 12C0 5.37256 5.37256 0 12 0C18.6274 0 24 5.37256 24 12Z" fill="#F8312F"/>
<path d="M224.399 12.4C224.399 17.8486 220.886 22.4764 216 24.1406V81.5984C220.774 84.3752 224 89.5496 224 95.4408V151.521C224 160.321 216.8 167.521 208 167.521L184.476 122.087L208 79.4408V24.1408C203.114 22.4769 199.6 17.8489 199.6 12.4C199.6 5.55168 205.151 0 212 0C218.848 0 224.399 5.55168 224.399 12.4Z" fill="#F8312F"/>
<path d="M72 20C72 13.3726 77.3728 8 84 8H140C146.627 8 152 13.3726 152 20C152 25.4346 148.387 30.0254 143.433 31.5019C141.221 32.161 138.876 32.3329 136.663 32.9884L112.239 40.2234L87.2864 32.9571C85.1064 32.3222 82.8008 32.1561 80.6216 31.5179C75.6392 30.0589 72 25.4544 72 20Z" fill="#FFB02E"/>
<path d="M160.4 224H63.6C37.28 224 16 202.72 16 176.4V80.24C16 53.6 37.6 32 64.24 32H159.84C186.4 32 208 53.6 208 80.24V176.48C208 202.72 186.72 224 160.4 224Z" fill="#CDC4D6"/>
<path d="M57.979 132H166.021C184.658 132 200 116.648 200 98C200 79.272 184.738 64 166.021 64H57.979C39.2624 64 24 79.272 24 98C24 116.728 39.2624 132 57.979 132Z" fill="#212121"/>
<path d="M91.7744 192H132.226C138.714 192 144 186.612 144 180C144 173.388 138.714 168 132.226 168H91.7744C85.2864 168 80 173.388 80 180C80 186.612 85.2864 192 91.7744 192Z" fill="#212121"/>
<path d="M66 80C60.4771 80 56 84.4768 56 90V110C56 115.523 60.4771 120 66 120C71.5232 120 76 115.523 76 110V90C76 84.4768 71.5232 80 66 80Z" fill="#00A6ED"/>
<path d="M158 80C152.477 80 148 84.4768 148 90V110C148 115.523 152.477 120 158 120C163.523 120 168 115.523 168 110V90C168 84.4768 163.523 80 158 80Z" fill="#00A6ED"/>
<path d="M170.183 249.539L176.066 247.964L177.644 244.545L187.84 244.812L198.444 241.974L200.832 238.271L210.754 238.679L221.114 235.906C228.31 233.987 230.748 224.953 225.471 219.676L188.212 182.377C182.935 177.1 173.901 179.499 171.982 186.734L168.893 198.274L169.325 207.647L165.804 209.814L162.646 221.612L163.175 230.598L159.724 232.531L158.349 237.665C156.391 244.861 162.987 251.457 170.183 249.539Z" fill="#F9C23C"/>
<path d="M181.18 230.16C175.262 224.634 170.221 217.981 165.77 209.941L168.878 198.331C173.989 209.516 179.738 217.877 186.635 224.317C193.282 230.524 201.156 235.098 210.903 238.639L198.393 241.988C191.989 238.801 186.294 234.936 181.18 230.16Z" fill="#3F5FFF"/>
<path d="M167.133 241.488C164.304 238.842 161.872 235.879 159.717 232.557L162.695 221.432C165.504 227.39 168.65 231.962 172.592 235.649C176.526 239.327 181.421 242.283 187.936 244.786L175.988 247.985C172.699 246.095 169.768 243.953 167.133 241.488Z" fill="#3F5FFF"/>
<path d="M226.391 232.708C231.988 227.111 225.031 211.121 210.88 196.969C196.728 182.817 180.777 175.861 175.18 181.457C169.583 187.054 176.539 203.045 190.691 217.197C204.843 231.349 220.834 238.265 226.391 232.708Z" fill="#6D4534"/>
<path d="M196.408 159.07C201.365 168.345 202.364 178.979 199.286 189.013C196.688 197.568 191.331 204.804 184.055 209.801C181.976 207.203 180.177 204.604 178.658 202.086C184.215 198.288 188.292 192.771 190.291 186.255C192.65 178.619 191.89 170.544 188.133 163.508C186.893 161.189 187.773 158.351 190.051 157.152C192.37 155.912 195.208 156.792 196.408 159.07Z" fill="#F70A8D"/>
<path d="M238.543 196.819C246.101 190.848 255.905 189.632 264.344 192.78C266.512 193.589 268.926 192.486 269.735 190.318C270.543 188.149 269.441 185.736 267.273 184.927C256.203 180.799 243.299 182.381 233.348 190.242C231.531 191.677 231.222 194.312 232.657 196.128C234.091 197.944 236.727 198.254 238.543 196.819Z" fill="#F70A8D"/>
<path d="M174.021 168.745C176.582 168.745 178.658 166.669 178.658 164.107C178.658 161.546 176.582 159.47 174.021 159.47C171.459 159.47 169.383 161.546 169.383 164.107C169.383 166.669 171.459 168.745 174.021 168.745Z" fill="#F70A8D"/>
<path d="M254.455 164.107C254.455 166.669 252.378 168.745 249.817 168.745C247.256 168.745 245.18 166.669 245.18 164.107C245.18 161.546 247.256 159.47 249.817 159.47C252.378 159.47 254.455 161.546 254.455 164.107Z" fill="#F70A8D"/>
<path d="M199.926 145.838C199.926 147.957 198.208 149.676 196.088 149.676C193.968 149.676 192.25 147.957 192.25 145.838C192.25 143.718 193.968 142 196.088 142C198.208 142 199.926 143.718 199.926 145.838Z" fill="#F9C23C"/>
<path d="M251.856 227.591C251.856 229.733 250.12 231.469 247.978 231.469C245.837 231.469 244.101 229.733 244.101 227.591C244.101 225.45 245.837 223.713 247.978 223.713C250.12 223.713 251.856 225.45 251.856 227.591Z" fill="#F9C23C"/>
<path d="M236.465 146.078C235.825 145.518 235.026 145.158 234.146 145.118C231.988 144.998 230.149 146.637 229.989 148.796C229.709 153.194 226.671 161.149 225.511 163.827C225.511 163.847 225.501 163.867 225.491 163.887C225.481 163.907 225.471 163.927 225.471 163.947C225.257 164.475 225.028 164.996 224.784 165.508C224.376 164.998 223.926 164.53 223.432 164.107C222.313 163.108 220.954 162.348 219.355 161.829L219.235 161.789C213.838 159.99 207.961 162.908 206.162 168.345C205.283 170.983 205.483 173.782 206.722 176.26C207.961 178.739 210.08 180.578 212.719 181.457C213.002 181.552 213.289 181.612 213.576 181.639C215.595 182.185 217.55 182.203 219.432 181.698C219.318 182.247 219.186 182.793 219.035 183.336C218.475 185.415 219.715 187.574 221.793 188.134C223.872 188.693 226.031 187.454 226.591 185.375C227.491 182.119 227.881 178.802 227.762 175.452C229.842 172.846 231.503 169.975 232.747 166.866L232.806 166.723C233.547 164.93 237.436 155.521 237.824 149.236C237.864 147.997 237.344 146.837 236.465 146.078ZM216.956 169.224C218.057 169.591 219.186 170.209 219.669 172.727C217.7 174.555 216.436 174.355 215.317 173.982C215.182 173.937 215.047 173.9 214.911 173.87C214.403 173.632 213.995 173.21 213.758 172.702C213.438 172.103 213.398 171.423 213.638 170.784C214.078 169.464 215.517 168.745 216.836 169.184L216.956 169.224Z" fill="#00A6ED"/>
<path d="M223.033 202.605C236.665 198.808 250.937 200.527 263.25 207.483C265.528 208.802 266.328 211.64 265.089 213.879C263.809 216.158 260.931 216.957 258.652 215.678C248.538 210.001 236.785 208.562 225.591 211.68C216.356 214.239 208.441 219.676 202.724 227.191C200.286 225.512 197.767 223.593 195.288 221.435C202.205 212.36 211.839 205.724 223.033 202.605Z" fill="#00A6ED"/>
<path d="M216.452 197.909C216.452 200.449 214.394 202.507 211.855 202.507C209.316 202.507 207.258 200.449 207.258 197.909C207.258 195.37 209.316 193.312 211.855 193.312C214.394 193.312 216.452 195.37 216.452 197.909Z" fill="#00A6ED"/>
</svg>
